<svg width="80" height="80" viewBox="0 0 80 80" fill="none" xmlns="http://www.w3.org/2000/svg">
<path d="M16.6875 52H29.0114C34.7003 52 38.2159 48.8935 38.2159 44.5852C38.2159 40.8906 35.4929 38.4744 32.1307 38.3466V38.0909C35.1605 37.4901 37.1932 35.2528 37.1932 32.3636C37.1932 28.375 34.0227 25.8182 28.0398 25.8182H16.6875V52ZM23.7955 46.3239V40.8011H27.2216C29.3821 40.8011 30.6989 41.8239 30.6989 43.6648C30.6989 45.4162 29.5099 46.3239 27.1193 46.3239H23.7955ZM23.7955 36.4034V31.392H26.8125C28.5767 31.392 29.8807 32.2869 29.8807 33.8977C29.8807 35.5085 28.5767 36.4034 26.7102 36.4034H23.7955ZM48.6605 48.4205H54.3878V41.8239H60.9844V36.0966H54.3878V29.5H48.6605V36.0966H42.0639V41.8239H48.6605V48.4205Z" fill="white"/>
<rect x="0.5" y="0.5" width="79" height="79" rx="9.5" stroke="#00FFFF"/>
</svg>
